# xmcd
#
# Track frame offsets:
#	150
#	21817
#	33420
#	48880
#	65552
#	82967
#	97552
#	108537
#	121347
#	138525
#	155172
#
# Disc length: 2342 seconds
#
# Revision: 13
# Processed by: cddbd v1.5.2PL0 Copyright (c) Steve Scherf et al.
# Submitted via: EasyCDDAExtractor 15.3.0.1
#
DISCID=8809240b
DTITLE=Luis Miguel - Mis Romances
DYEAR=2001
DGENRE=Latin
TTITLE0=Que Sabes Tu
TTITLE1=Tu Me Acostumbraste
TTITLE2=Perfidia
TTITLE3=Amor, Amor, Amor
TTITLE4=Como Duele
TTITLE5=Toda Una Vida
TTITLE6=El Tiempo Que Te Quede Libre
TTITLE7=Amorcito Corazon
TTITLE8=La Ultima Noche
TTITLE9=Volver
TTITLE10=Al Que Me Siga
EXTD=
EXTT0=
EXTT1=
EXTT2=
EXTT3=
EXTT4=
EXTT5=
EXTT6=
EXTT7=
EXTT8=
EXTT9=
EXTT10=
PLAYORDER=
